<svg width="500" fill="#00f" height="500" xmlns="http://www.w3.org/2000/svg"><defs><linearGradient x1="50%" y1="3.368%" x2="50%" y2="63.709%" id="a"><stop stop-color="#FFF" offset="0%"/><stop stop-color="#E2C8E8" offset="100%"/></linearGradient></defs><g fill="none" fill-rule="evenodd"><path fill="#FFF" d="M0 0h500v500H0z"/><path fill="url(#a)" opacity=".376" d="m250 16 202.65 117v234L250 484 47.35 367V133z"/><path d="M62.697 273.026H48.991V256.58c.006-6.055 4.913-10.962 10.968-10.968h57.564v-18.275h13.706v18.275h57.564c6.054.008 10.96 4.914 10.968 10.968v16.445h-13.707v-13.707H131.23v13.707h-13.706v-13.707H62.697v13.707Z" fill="#87189D"/><path d="M69.55 282.163H42.138A9.138 9.138 0 0 0 33 291.301v27.413a9.138 9.138 0 0 0 9.138 9.137H69.55a9.138 9.138 0 0 0 9.138-9.137V291.3a9.138 9.138 0 0 0-9.138-9.138Zm86.388-135.325h-64.4c-8.891 0-16.1 7.208-16.1 16.1v48.3c0 8.892 7.209 16.1 16.1 16.1h64.4c8.892 0 16.1-7.208 16.1-16.1v-48.3c0-8.892-7.208-16.1-16.1-16.1Zm50.676 135.325H179.2a9.138 9.138 0 0 0-9.137 9.138v27.413a9.138 9.138 0 0 0 9.137 9.137h27.413a9.138 9.138 0 0 0 9.137-9.137V291.3a9.138 9.138 0 0 0-9.137-9.138Zm-68.532 0H110.67a9.138 9.138 0 0 0-9.137 9.138v27.413a9.138 9.138 0 0 0 9.137 9.137h27.413a9.138 9.138 0 0 0 9.138-9.137V291.3a9.138 9.138 0 0 0-9.138-9.138Z" fill="#87189D"/><g fill="#FFF" fill-rule="nonzero"><path d="m147.273 167.26-21-8.75a5.266 5.266 0 0 0-4.035 0l-21 8.75A5.25 5.25 0 0 0 98 172.11c0 21.71 12.523 36.715 24.227 41.594a5.266 5.266 0 0 0 4.035 0c9.374-3.906 24.238-17.393 24.238-41.595a5.25 5.25 0 0 0-3.227-4.848Zm-5.162 12.493-20.125 20.125a1.757 1.757 0 0 1-2.472 0l-11.375-11.375a1.758 1.758 0 0 1 0-2.473l2.472-2.472a1.758 1.758 0 0 1 2.472 0l7.667 7.667 16.417-16.417a1.758 1.758 0 0 1 2.472 0l2.472 2.472a1.738 1.738 0 0 1 0 2.472Z"/><path d="m142.11 179.752-20.124 20.125a1.757 1.757 0 0 1-2.472 0l-11.375-11.375a1.758 1.758 0 0 1 0-2.472l2.472-2.472a1.758 1.758 0 0 1 2.472 0l7.667 7.667 16.417-16.417a1.758 1.758 0 0 1 2.472 0l2.472 2.472a1.738 1.738 0 0 1 0 2.472Z" opacity=".4"/></g><path fill="#BE9CC2" d="m346 237-49.082 124.227L264 466.25H251L301.326 237z"/><path d="M355.883 237c.523 43.654 8.145 102.427 9.363 105.149.812 1.814 28.838 24.883 84.078 69.209l-8.953 9.58c-65.179-38.003-99.276-59.539-102.292-64.607C333.555 348.728 318.826 278.763 307 237h48.883Z" fill="#BE9CC2"/><path d="m463.426 415.491-16.73-12.732-13.498 16.087c-1.039 12.127-5.054 25.728-12.046 40.803l3.064 2.571 24.426-29.11-1.19-17.969 9.546 8.01 6.428-7.66ZM272 478l-1-21h-21c-9.958 7-22.958 12.667-39 17v4h38l13-12.462V478h10Z" fill="#AD1AAC"/><path fill="#D58AD5" d="m313 455.433-61.804-6.708L297 237h55.356z"/><path fill-opacity=".1" fill="#000" d="m313 455.433-61.804-6.708L297 237h55.356z"/><path d="M436.54 395.9 396 443.886c-42.7-46.636-67.594-77.066-74.683-91.29-7.088-14.224-13.46-52.756-19.116-115.596h62.32c3.09 55.284 5.173 84.212 6.248 86.785 1.076 2.572 23 26.611 65.771 72.115Z" fill="#D58AD5"/><path d="M374.492 226 354 230.066c20.608 38.405 31.66 58.76 33.155 61.064 3.365 5.185.225 14.687-.934 19.691 7.275 1.694 4.406-9.256 13.612-6.97 8.403 2.087 15.528 7.442 23.363.22.963-.888 1.669-3.664-1.616-5.087-8.183-3.547-20.272-10.188-22.232-12.766-2.674-3.516-10.959-23.589-24.856-60.218Zm-165.68-38.745.371.545c3.089 4.548 5.979 9.32 4.74 10.905-1.287 1.65-5.016-.17-6.49 2.511-.982 1.788 5.305 3.927 18.86 6.417l27.137 20.806L265 213.617l-36.235-15.913c-6.347-6.325-12.476-11.132-18.388-14.422-1.767-.563-4.787-.733-1.565 3.973Z" fill="#CFB5D2"/><path d="m333.126 135.555-8.647-1.483c-18.834 18.27-26.52 62.164-39.072 67.974-11.867 5.493-28.69.177-48.686-7l-6.29 51.44c35.367 12.74 57.04-1.496 72.73-10.976 25.083-15.157 30.874-69.293 29.965-99.955Z" fill="#C051C0"/><path d="M368 244h-77c17.84-43.375 26.759-80.221 26.759-110.54l23.227-3.46c18.254 29.358 23.41 65.505 27.014 114Z" fill="#EFF2FB"/><path d="M339.952 130a975.27 975.27 0 0 0-8.29.338l-5.612 16.039c-.594 19.555-4.06 58.965-10.401 118.229h50.475c-.132 4.093-.35 8.224-.655 12.394H403c-5.614-63.336-26.115-112.336-61.504-147l-.018.017-.01-.017Z" fill="#C051C0"/><path d="M352 265h14.11c.619-18.357-.488-35.945-3.32-52.765-1.437 25.514-5.033 43.102-10.79 52.765Z" fill="#C051C0"/><path fill-opacity=".2" fill="#FFF" d="M354.89 234 330 222.43V234z"/><path d="M302.857 85.134c-5.795 10.801-5.107 38.199 2.383 40.13 3.08.793 9.748-1.237 16.43-5.39L320 135h21l-7.697-25.19c4.295-5.28 7.14-11.665 6.64-18.785-1.501-21.4-31.292-16.692-37.086-5.891Z" fill="#BE9CC2"/><path d="M301.379 80.558c2.242-8.645 9.66-11.446 14.154-12.558s8.13 0 10.971 0c8.087 0 20.106 5.324 23.86 12.558 3.752 7.234 5.285 9.996 1.958 26.119-3.327 16.123 6.025 10.455 7.064 20.806.923 9.182-7.064 10.485 0 21.517 7.065 11.032 10.986 9.12 11.552 20.604.48 9.73-21.018 14.31-22.863 15.094-1.23.523.186-1.871 4.247-7.182-12.763 5.242-16.87 5.925-12.322 2.048 6.822-5.814 3.878-9.588 2.413-9.96-3.348 6.99-8.65 9.627-15.909 7.912 4.692-3.766 6.82-8.6 6.384-14.504-.655-8.856-6.98-11.94-8.731-17.27-2.231-6.794 7.061-13.706 8.73-18.259 1.987-5.417 1.338-10.578-1.946-15.483-4.596-4.937-7.553-8.699-8.872-11.284-1.318-2.585-2.008-5.658-2.069-9.22-4.648-.066-7.28-.114-7.899-.146-.692-.034-.92-3.676-1.568-3.709-.73-.036-1.873 3.537-2.548 3.503-8.21-.41-7.402-.606-7.575-.59-.605.056-1.274-1.35.969-9.996Z" fill="#6D2077"/></g></svg>
